<?xml version="1.0" encoding="UTF-8"?>
<svg id="_图层_2" data-name="图层 2" xmlns="http://www.w3.org/2000/svg" viewBox="0 0 2001.52 1135.24">
  <defs>
    <style>
      .cls-1 {
        fill: currentColor;
      }
    </style>
  </defs>
  <g id="_图层_1-2" data-name="图层 1">
    <path class="cls-1" d="M1126.53,552.37l11.29.32,863.7-228v-80.15s-239.76,0-239.76,0v-125.52s-221.65,0-221.65,0V25.81s-307.47,0-307.47,0V0s-307.47,0-307.47,0v25.81s-307.47,0-307.47,0v57.02s-152.26,0-152.26,0v125.97s-238.91,0-238.91,0v116.46s-177.4,0-177.4,0v161.55s-49.13,0-49.13,0v161.55s49.13,0,49.13,0v161.55s107.22,0,107.22,0v80.78s239.76,0,239.76,0v125.52s221.65,0,221.65,0v93.21s307.47,0,307.47,0v25.81s307.47,0,307.47,0v-25.81s307.47,0,307.47,0v-64.74s159.02,0,159.02,0v-109.25s302.32,0,302.32,0v-124.89s-867.64-224.19-867.64-224.19l-11.29-.41-6.54-.21-.59,5.07-9.38-.3-.52,4.49-18.14-.59-.21,1.79-18.14-.59.21-1.79-18.14-.59.46-3.96-9.08-.29.65-5.6-6.33-.2,1.31-11.2-2.9-.09,1.31-11.2,2.9.09,1.31-11.2,6.42.21.66-5.61,9.07.29.46-3.95,18.05.58.21-1.79,18.14.59-.21,1.79,18.14.59-.46,3.96,9.08.29-.65,5.6,6.86.22Z"/>
  </g>
</svg>